<?xml version="1.0" standalone="no"?>
<!DOCTYPE svg PUBLIC "-//W3C//DTD SVG 20010904//EN"
 "http://www.w3.org/TR/2001/REC-SVG-20010904/DTD/svg10.dtd">
<svg version="1.0" xmlns="http://www.w3.org/2000/svg"
 width="249.000000pt" height="318.000000pt" viewBox="0 0 249.000000 318.000000"
 preserveAspectRatio="xMidYMid meet">

<g transform="translate(0.000000,318.000000) scale(0.100000,-0.100000)"
fill="#000000" stroke="none">
<path d="M1135 3024 c-111 -21 -226 -84 -310 -168 -127 -128 -185 -278 -185
-478 l0 -108 -124 0 c-69 0 -137 -5 -153 -11 -35 -13 -80 -55 -100 -93 -10
-19 -29 -172 -59 -460 -57 -558 -88 -865 -119 -1161 -27 -259 -26 -272 20
-351 29 -49 70 -84 135 -113 44 -20 62 -21 1020 -21 958 0 976 1 1020 21 65
29 106 64 136 115 44 75 44 94 13 402 -16 158 -56 553 -89 877 -67 656 -67
660 -85 695 -18 34 -64 77 -98 89 -16 6 -84 11 -153 11 l-124 0 0 100 c0 56
-7 136 -16 178 -49 238 -250 435 -489 477 -98 17 -149 17 -240 -1z m276 -125
c165 -47 302 -195 344 -370 8 -35 15 -108 15 -161 l0 -98 -510 0 -510 0 0 93
c1 218 79 379 233 478 131 85 271 104 428 58z m-750 -871 c26 -22 47 -23 71
-1 14 12 18 31 18 80 0 34 4 63 9 63 15 0 49 -49 56 -80 19 -86 -72 -170 -152
-139 -88 33 -115 132 -54 196 l26 28 3 -65 c2 -52 7 -69 23 -82z m1109 80 c0
-88 34 -120 88 -82 19 13 22 24 22 80 0 35 4 64 9 64 14 0 47 -50 55 -82 11
-47 -20 -104 -69 -128 -48 -23 -82 -20 -127 12 -31 21 -54 84 -45 120 8 28 44
78 58 78 5 0 9 -28 9 -62z"/>
</g>
</svg>
